<svg width="118" height="40" viewBox="0 0 118 40" fill="none" xmlns="http://www.w3.org/2000/svg">
<g clip-path="url(#clip0_210_3197)">
<path d="M37.1549 8.9171V9.54481C36.0137 17.3975 34.8659 25.2505 33.7116 33.1037C33.6156 33.7575 33.5261 34.2139 33.4432 34.473C32.8602 36.2919 31.1462 37.5662 29.2372 37.613C28.9553 37.62 28.4918 37.5762 27.8469 37.4816C22.3317 36.6749 16.8167 35.868 11.3019 35.0609C10.6365 34.9635 10.1791 34.8761 9.92977 34.7988C8.08787 34.2312 6.78282 32.5081 6.73598 30.5781C6.72946 30.298 6.7735 29.8348 6.8681 29.1885C7.9977 21.4621 9.12824 13.7356 10.2597 6.0092C10.6246 3.51792 12.8845 1.79136 15.38 2.15345C21.3416 3.01929 27.3026 3.88933 33.2628 4.76356C35.4088 5.07812 36.9424 6.75505 37.1549 8.9171ZM22.7644 15.3536C22.6516 15.225 22.54 15.0959 22.4295 14.9664C21.3936 13.7487 19.8341 13.0077 18.2187 13.33C16.9381 13.5851 15.7882 14.4414 15.2248 15.6213C14.4356 17.2766 14.8935 19.0738 15.9713 20.5004C16.428 21.1049 16.8868 21.6534 17.3477 22.1459C18.4121 23.283 19.5351 24.3581 20.7169 25.3712C21.0273 25.6368 21.2936 25.8088 21.6718 25.6487C23.1197 25.0345 24.6228 24.266 26.1811 23.3433C27.8126 22.3773 29.4882 21.2533 29.9209 19.2555C30.4926 16.6153 28.2803 14.059 25.5513 14.2785C24.5419 14.3596 23.6479 14.7762 22.8224 15.3606C22.8009 15.3755 22.7816 15.3732 22.7644 15.3536Z" fill="#A091F7"/>
<path d="M6.4797 36.4751C4.28759 36.1543 2.7218 34.3697 2.60926 32.1755C2.19918 24.2077 1.78769 16.2396 1.37481 8.27135C1.24199 5.71575 3.11605 3.52994 5.65137 3.39992C6.79029 3.34167 7.92456 3.28389 9.05416 3.22657C9.05808 3.22648 9.06196 3.22734 9.06548 3.22906C9.069 3.23079 9.07205 3.23333 9.07438 3.23649C9.07671 3.23964 9.07825 3.2433 9.07887 3.24717C9.07948 3.25104 9.07916 3.255 9.07793 3.25872C8.94931 3.63712 8.85728 4.01506 8.80182 4.39252C7.62235 12.3771 6.44871 20.3629 5.28089 28.3498C4.8496 31.2989 6.75162 34.1852 9.63435 34.9841C9.89251 35.0559 10.3506 35.14 11.0086 35.2365C12.8153 35.5026 14.5959 35.7633 16.3505 36.0187C16.4903 36.0387 16.4896 36.0525 16.3484 36.0599C13.5402 36.2044 10.7127 36.3474 7.86584 36.4891C7.22508 36.5213 6.76303 36.5166 6.4797 36.4751Z" fill="#A091F7"/>
</g>
<path d="M39.2637 30.3925V23.8136H54.8887C55.1189 23.8136 55.3108 23.7368 55.4643 23.5833C55.6288 23.4188 55.711 23.2215 55.711 22.9912C55.711 22.7609 55.6288 22.5691 55.4643 22.4156C55.3108 22.2511 55.1189 22.1688 54.8887 22.1688H46.665C44.6255 22.1688 42.8821 21.4452 41.4347 19.9978C39.9874 18.5504 39.2637 16.807 39.2637 14.7675C39.2637 12.7281 39.9874 10.9846 41.4347 9.53726C42.8821 8.0899 44.6255 7.36621 46.665 7.36621H62.29V13.9452H46.665C46.4347 13.9452 46.2374 14.0274 46.0729 14.1919C45.9194 14.3454 45.8426 14.5373 45.8426 14.7675C45.8426 14.9978 45.9194 15.1952 46.0729 15.3596C46.2374 15.5131 46.4347 15.5899 46.665 15.5899H54.8887C56.9281 15.5899 58.6716 16.3136 60.1189 17.7609C61.5663 19.2083 62.29 20.9517 62.29 22.9912C62.29 25.0307 61.5663 26.7741 60.1189 28.2215C58.6716 29.6688 56.9281 30.3925 54.8887 30.3925H39.2637Z" fill="#A091F7"/>
<path d="M75.2834 23.8136C76.6431 23.8136 77.8053 23.3311 78.7702 22.3662C79.7352 21.4013 80.2176 20.239 80.2176 18.8794C80.2176 17.5197 79.7352 16.3574 78.7702 15.3925C77.8053 14.4276 76.6431 13.9452 75.2834 13.9452C73.9238 13.9452 72.7615 14.4276 71.7966 15.3925C70.8317 16.3574 70.3492 17.5197 70.3492 18.8794C70.3492 20.239 70.8317 21.4013 71.7966 22.3662C72.7615 23.3311 73.9238 23.8136 75.2834 23.8136ZM75.2834 30.3925C72.1036 30.3925 69.3898 29.2686 67.142 27.0208C64.8942 24.773 63.7702 22.0592 63.7702 18.8794C63.7702 15.6995 64.8942 12.9857 67.142 10.7379C69.3898 8.49011 72.1036 7.36621 75.2834 7.36621C78.4632 7.36621 81.177 8.49011 83.4249 10.7379C85.6727 12.9857 86.7966 15.6995 86.7966 18.8794C86.7966 22.0592 85.6727 24.773 83.4249 27.0208C81.177 29.2686 78.4632 30.3925 75.2834 30.3925Z" fill="#A091F7"/>
<path d="M100.316 7.36621H105.251V13.9452H100.316C98.9566 13.9452 97.7944 14.4276 96.8295 15.3925C95.8645 16.3574 95.3821 17.5197 95.3821 18.8794V23.8136H105.251V30.3925H95.3821V36.8399H88.8031V18.8794C88.8031 15.6995 89.927 12.9857 92.1749 10.7379C94.4227 8.49011 97.1365 7.36621 100.316 7.36621Z" fill="#A091F7"/>
<path d="M115.185 30.3925H108.606V7.36621H115.185V30.3925Z" fill="#A091F7"/>
<defs>
<clipPath id="clip0_210_3197">
<rect width="35.7895" height="35.7895" fill="white" transform="translate(1.36816 2.10547)"/>
</clipPath>
</defs>
</svg>
